HIERARCHY
ROOT Hips
{
	OFFSET 0.000000 89.005402 0.000000
	CHANNELS 6 Xposition Yposition Zposition Xrotation Yrotation Zrotation
	JOINT Spine
	{
		OFFSET 0.116900 10.681000 0.373400
		CHANNELS 3 Xrotation Yrotation Zrotation
		JOINT Spine1
		{
			OFFSET 0.000000 13.840401 0.053500
			CHANNELS 3 Xrotation Yrotation Zrotation
			JOINT Spine2
			{
				OFFSET 0.000000 14.712700 -0.366200
				CHANNELS 3 Xrotation Yrotation Zrotation
				JOINT Neck
				{
					OFFSET 0.000000 35.415497 -3.314200
					CHANNELS 3 Xrotation Yrotation Zrotation
					JOINT Head
					{
						OFFSET 0.000000 16.899200 1.218300
						CHANNELS 3 Xrotation Yrotation Zrotation
						JOINT HeadTop_End
						{
							OFFSET 0.000000 22.206207 2.192500
							CHANNELS 3 Xrotation Yrotation Zrotation
							End Site
							{
								OFFSET 0.000000 22.314178 0.000000
							}
						}
					}
				}
				JOINT LeftShoulder
				{
					OFFSET 12.896400 26.716293 -4.548400
					CHANNELS 3 Xrotation Yrotation Zrotation
					JOINT LeftArm
					{
						OFFSET 19.027000 -4.857010 -1.718400
						CHANNELS 3 Xrotation Yrotation Zrotation
						JOINT LeftForeArm
						{
							OFFSET 24.179897 0.000000 0.000000
							CHANNELS 3 Xrotation Yrotation Zrotation
							JOINT LeftHand
							{
								OFFSET 27.156403 0.000000 0.000000
								CHANNELS 3 Xrotation Yrotation Zrotation
								JOINT LeftHandIndex1
								{
									OFFSET 16.441200 0.000000 0.000000
									CHANNELS 3 Xrotation Yrotation Zrotation
									JOINT LeftHandIndex2
									{
										OFFSET 4.821899 0.000000 0.000000
										CHANNELS 3 Xrotation Yrotation Zrotation
										JOINT LeftHandIndex3
										{
											OFFSET 6.386497 0.000000 0.000000
											CHANNELS 3 Xrotation Yrotation Zrotation
											JOINT LeftHandIndex4
											{
												OFFSET 5.188988 0.000000 0.000000
												CHANNELS 3 Xrotation Yrotation Zrotation
												End Site
												{
													OFFSET -0.178703 5.185913 0.000177
												}
											}
										}
									}
								}
								JOINT LeftHandThumb1
								{
									OFFSET 6.534897 -5.032593 5.900300
									CHANNELS 3 Xrotation Yrotation Zrotation
									JOINT LeftHandThumb2
									{
										OFFSET 3.818176 -2.204422 2.204423
										CHANNELS 3 Xrotation Yrotation Zrotation
										JOINT LeftHandThumb3
										{
											OFFSET 3.252098 -1.877594 1.877601
											CHANNELS 3 Xrotation Yrotation Zrotation
											JOINT LeftHandThumb4
											{
												OFFSET 5.251778 -3.032120 3.032117
												CHANNELS 3 Xrotation Yrotation Zrotation
												End Site
												{
													OFFSET 0.000023 6.780014 0.000000
												}
											}
										}
									}
								}
							}
						}
					}
				}
				JOINT RightShoulder
				{
					OFFSET -12.896300 26.716293 -4.548400
					CHANNELS 3 Xrotation Yrotation Zrotation
					JOINT RightArm
					{
						OFFSET -19.027000 -4.857010 -1.718400
						CHANNELS 3 Xrotation Yrotation Zrotation
						JOINT RightForeArm
						{
							OFFSET -24.179897 0.000000 0.000000
							CHANNELS 3 Xrotation Yrotation Zrotation
							JOINT RightHand
							{
								OFFSET -27.156403 0.000000 0.000000
								CHANNELS 3 Xrotation Yrotation Zrotation
								JOINT RightHandThumb1
								{
									OFFSET -6.591202 -4.852203 5.988100
									CHANNELS 3 Xrotation Yrotation Zrotation
									JOINT RightHandThumb2
									{
										OFFSET -3.818176 -2.204422 2.204423
										CHANNELS 3 Xrotation Yrotation Zrotation
										JOINT RightHandThumb3
										{
											OFFSET -3.252098 -1.877594 1.877601
											CHANNELS 3 Xrotation Yrotation Zrotation
											JOINT RightHandThumb4
											{
												OFFSET -5.251778 -3.032120 3.032117
												CHANNELS 3 Xrotation Yrotation Zrotation
												End Site
												{
													OFFSET -0.000023 6.780014 0.000000
												}
											}
										}
									}
								}
								JOINT RightHandIndex1
								{
									OFFSET -16.029404 0.000000 0.000000
									CHANNELS 3 Xrotation Yrotation Zrotation
									JOINT RightHandIndex2
									{
										OFFSET -5.213303 0.000000 0.000000
										CHANNELS 3 Xrotation Yrotation Zrotation
										JOINT RightHandIndex3
										{
											OFFSET -6.386528 0.000000 0.000000
											CHANNELS 3 Xrotation Yrotation Zrotation
											JOINT RightHandIndex4
											{
												OFFSET -5.189026 0.000000 0.000000
												CHANNELS 3 Xrotation Yrotation Zrotation
												End Site
												{
													OFFSET 0.236702 5.183624 0.001972
												}
											}
										}
									}
								}
							}
						}
					}
				}
			}
		}
	}
	JOINT LeftUpLeg
	{
		OFFSET 14.073000 -7.904099 -1.463000
		CHANNELS 3 Xrotation Yrotation Zrotation
		JOINT LeftLeg
		{
			OFFSET -0.109806 -34.073280 4.093200
			CHANNELS 3 Xrotation Yrotation Zrotation
			JOINT LeftFoot
			{
				OFFSET 0.109806 -29.899420 -6.319000
				CHANNELS 3 Xrotation Yrotation Zrotation
				JOINT LeftToeBase
				{
					OFFSET 1.551100 -14.988700 20.535801
					CHANNELS 3 Xrotation Yrotation Zrotation
					JOINT LeftToe_End
					{
						OFFSET 0.221200 0.570800 13.248301
						CHANNELS 3 Xrotation Yrotation Zrotation
						End Site
						{
							OFFSET 0.000000 13.262435 0.000000
						}
					}
				}
			}
		}
	}
	JOINT RightUpLeg
	{
		OFFSET -13.839300 -7.904099 -1.463000
		CHANNELS 3 Xrotation Yrotation Zrotation
		JOINT RightLeg
		{
			OFFSET 0.109694 -34.073219 4.093300
			CHANNELS 3 Xrotation Yrotation Zrotation
			JOINT RightFoot
			{
				OFFSET -0.109694 -29.899384 -6.319200
				CHANNELS 3 Xrotation Yrotation Zrotation
				JOINT RightToeBase
				{
					OFFSET -1.551100 -14.988700 20.535801
					CHANNELS 3 Xrotation Yrotation Zrotation
					JOINT RightToe_End
					{
						OFFSET -0.221200 0.570900 13.248299
						CHANNELS 3 Xrotation Yrotation Zrotation
						End Site
						{
							OFFSET 0.000000 13.262440 0.000000
						}
					}
				}
			}
		}
	}
}
MOTION
Frames: 4
Frame Time: 0.033333
-8.319383 79.215256 5.231390 -5.624531 -2.854452 -0.121132 4.530574 -0.427238 0.987530 -9.498225 -1.850599 1.233174 -9.446107 -1.791773 1.502608 8.599769 1.053610 -0.271528 19.636802 4.937656 -12.932428 -0.000001 -0.000000 0.000000 -9.113723 19.176840 30.044995 -15.823361 14.625535 4.539828 160.874041 -116.271157 163.192371 3.694431 -16.938808 17.280297 7.128940 -25.621991 -17.231618 0.013182 0.249200 -14.192523 0.054801 0.188630 -14.806469 0.000001 0.000001 0.000000 -0.444430 -7.745384 8.723785 2.327840 19.865600 -2.083092 0.760317 1.056256 2.542593 0.000003 -0.000001 0.000000 -10.530085 -14.209006 -35.920610 -8.316426 -23.972678 -13.886254 109.962521 124.592267 -107.574810 -18.092297 -6.698419 -7.639044 5.862495 -1.965937 6.652160 1.368850 -17.375038 3.030820 3.315965 -13.094258 -8.191730 -0.000002 -0.000001 -0.000000 7.775932 16.938142 21.472283 0.012477 -0.261325 17.618618 0.061439 -0.198631 17.491720 0.000001 0.000000 -0.000000 -32.763700 -4.915632 5.806892 25.501809 -35.252642 -5.428755 5.615680 -3.457014 -9.631482 -0.254190 1.239461 0.835515 0.000000 0.000002 0.000000 24.767449 -16.901001 -9.931950 22.421600 -7.855367 -3.909292 -27.010755 0.200275 21.003320 -19.684182 -0.642696 -1.032946 -0.000000 -0.000001 -0.000000 
-7.891010 78.962601 5.898994 -3.213320 -2.987792 -0.205569 4.458980 -0.644339 0.283569 -9.887625 -1.989168 1.234470 -9.834444 -1.933640 1.506788 9.862595 1.043542 0.393095 15.992657 5.697537 -14.002466 0.000000 0.000000 0.000000 -9.301577 22.892185 24.425276 -31.008967 23.459547 14.323566 144.798918 -109.481403 148.753187 3.792779 -12.371748 14.070047 6.621383 -25.776063 -18.232632 0.015686 0.245722 -14.980879 0.054831 0.187156 -15.840284 0.000001 -0.000004 -0.000000 -1.064292 -7.954980 8.490011 2.373446 19.986023 -2.038355 0.808209 1.237970 2.631890 -0.000002 -0.000003 -0.000000 -10.066843 -18.301519 -26.729302 -24.725128 -23.004753 -28.241044 109.466540 121.630766 -103.122920 -21.354815 -5.421133 -10.445871 5.317280 -1.537145 6.570241 1.383779 -17.413151 3.016060 3.342448 -13.253793 -8.262906 -0.000003 0.000001 -0.000001 7.333925 18.343337 21.980848 0.012244 -0.262573 18.079466 0.062713 -0.199049 18.113368 -0.000001 -0.000001 -0.000000 -35.747294 -5.642034 4.838289 28.207921 -34.375027 -3.889775 4.340174 -3.402755 -9.288688 -0.256063 1.239211 0.835873 0.000000 -0.000003 -0.000000 22.696949 -15.733990 -10.022914 22.512220 -9.059032 -3.892866 -26.962028 0.009722 21.669988 -19.746844 -0.701761 -0.880932 -0.000001 0.000002 0.000000 
-7.453270 78.029305 6.747546 -0.379458 -2.860311 -0.104781 5.011698 -0.826357 0.011051 -9.083433 -2.190715 1.126130 -9.031368 -2.142314 1.378800 7.351554 1.109925 0.888485 9.934084 6.788270 -14.791113 -0.000000 -0.000000 -0.000001 -9.681511 25.062100 22.004595 -42.563304 35.533069 12.165731 100.654346 -105.072878 106.489179 8.350103 -3.194617 13.163515 6.563057 -26.037697 -20.518274 0.015609 0.241399 -16.875599 0.060939 0.182368 -17.829724 -0.000002 -0.000002 -0.000003 -1.064302 -7.955024 8.490040 2.373365 19.986081 -2.038320 0.808264 1.237964 2.631851 0.000003 0.000002 -0.000001 -8.964808 -18.295386 -16.122950 -45.752517 -21.639257 -37.972396 99.952271 117.207358 -86.089357 -17.992270 -5.655309 -17.526576 5.684795 -1.309833 7.230783 1.383789 -17.413120 3.016080 3.342455 -13.253819 -8.262873 0.000003 -0.000000 -0.000000 7.088715 19.018908 23.259694 0.009933 -0.268735 19.118837 0.061682 -0.203670 19.147576 0.000000 0.000000 0.000001 -40.514111 -6.091027 4.188735 32.355211 -34.251053 -4.106666 2.750491 -3.210131 -7.240117 -0.272784 1.238991 0.865538 -0.000000 -0.000001 0.000000 19.912049 -14.970376 -10.367822 24.102269 -9.557888 -4.227105 -28.314648 -0.669784 22.871189 -19.772882 -0.650709 -1.040739 0.000000 -0.000001 -0.000001 
-6.978184 76.578224 8.247240 2.284827 -1.105480 0.118809 5.909111 -0.916325 -0.041457 -6.901277 -2.389829 0.482415 -6.879125 -2.282178 0.673527 0.593330 0.380753 2.629581 2.150669 7.294244 -14.451886 0.000000 0.000000 0.000000 -9.767072 24.707808 15.903464 -44.211593 42.678577 -1.552974 55.837900 -107.259740 61.222585 9.565301 5.578001 15.397002 6.042998 -26.009278 -21.864805 0.014822 0.237906 -17.859297 0.064412 0.183348 -18.671961 -0.000001 0.000001 -0.000001 -1.064307 -7.955010 8.490001 2.373366 19.986037 -2.038309 0.808271 1.237970 2.631875 -0.000001 -0.000002 0.000001 -7.916593 -16.111574 -9.022372 -71.441866 -26.207214 -40.601943 79.141866 113.315386 -54.727628 -9.076293 -5.860325 -27.444127 2.452057 0.831969 3.532372 1.383803 -17.413101 3.016090 3.342440 -13.253773 -8.262936 -0.000000 0.000004 -0.000002 7.486149 17.445256 22.249645 0.020808 -0.260224 18.305575 0.068351 -0.195974 18.270087 0.000000 -0.000000 -0.000001 -46.141872 -6.445383 3.407736 37.064431 -35.605780 -6.561735 1.282909 -3.060761 -3.488375 -0.299602 1.238580 0.878715 -0.000000 -0.000001 -0.000000 18.964459 -15.651869 -10.232480 24.904992 -10.062248 -4.475544 -30.205029 -1.594380 24.196230 -19.889776 -0.625081 -1.122888 -0.000000 -0.000001 -0.000000 
